<?xml version="1.0" encoding="UTF-8"?>
<svg id="a" xmlns="http://www.w3.org/2000/svg" version="1.1" viewBox="0 0 147.82 24.5">
  <!-- Generator: Adobe Illustrator 29.8.1, SVG Export Plug-In . SVG Version: 2.1.1 Build 2)  -->
  <defs>
    <style>
      .st0 {
        fill: #d7f550;
      }

      .st1 {
        fill: #1e3635;
      }
    </style>
  </defs>
  <rect class="st0" x="5.4" y="2.72" width="19.71" height="18.99"/>
  <path class="st1" d="M32.68,0H12.25C5.48,0,0,5.48,0,12.25s5.48,12.25,12.25,12.25h20.43c6.77,0,12.25-5.48,12.25-12.25S39.44,0,32.68,0ZM19.21,13.3c-.84,3.14,1.42,8.21,1.42,8.21,0,0-3.28-4.47-6.42-5.31-3.14-.84-8.21,1.42-8.21,1.42,0,0,4.47-3.27,5.31-6.42.84-3.14-1.42-8.21-1.42-8.21,0,0,3.27,4.47,6.42,5.31,3.14.84,8.21-1.42,8.21-1.42,0,0-4.47,3.27-5.31,6.42Z"/>
  <path class="st1" d="M53.12,2.94h11.48c4.57,0,6.06,2.78,6.06,5.77,0,2.83-1.8,5.72-6,5.72h-7.62v7.07h-3.91V2.94h0ZM57.03,11.52h6.29c2.22,0,3.42-.6,3.42-2.81s-1.62-2.86-3.13-2.86h-6.58s0,5.67,0,5.67Z"/>
  <path class="st1" d="M72.51,2.94h11.8c4.75,0,6.29,2.16,6.29,5.04,0,2.42-1.33,3.93-3.08,4.47v.05c2.22.47,2.71,2.39,2.71,5.02,0,.89.03,2.96.78,3.98h-4.23c-.29-.52-.47-1.45-.47-2.81,0-2.65-.36-4.52-3.24-4.52h-6.66v7.33h-3.91V2.94h.01ZM83.18,11.26c2.17,0,3.34-.65,3.34-2.73,0-1.92-1.28-2.68-3.34-2.68h-6.76v5.41h6.76Z"/>
  <path class="st1" d="M90.76,2.94h4.39l6.08,14.87,5.95-14.87h4.23l-8.19,18.56h-4.15l-8.3-18.56h0Z"/>
  <path class="st1" d="M111.49,2.94h4.23l4.2,14.41h.05l4.64-14.41h4.07l4.67,14.41h.05l4.28-14.41h4.07l-6.26,18.56h-4.23l-4.65-14.25h-.05l-4.67,14.25h-4.23l-6.19-18.56h.02,0Z"/>
  <path class="st1" d="M146.36,2.19c.77,0,1.46.61,1.46,1.5s-.69,1.5-1.46,1.5-1.46-.6-1.46-1.5.69-1.5,1.46-1.5ZM146.36,4.87c.61,0,1.11-.48,1.11-1.17s-.5-1.18-1.11-1.18-1.11.49-1.11,1.18.49,1.17,1.11,1.17ZM145.79,2.91h.62c.4,0,.61.13.61.48,0,.29-.18.42-.41.44l.44.71h-.33l-.41-.7h-.22v.7h-.3v-1.63h0ZM146.09,3.61h.28c.19,0,.35-.02.35-.24,0-.19-.18-.23-.34-.23h-.29v.47h0Z"/>
</svg>